<svg width="45" height="44" viewBox="0 0 45 44" fill="none" xmlns="http://www.w3.org/2000/svg">
<rect x="1.10999" y="7.30499" width="35.39" height="35.39" rx="17.1071" fill="#0D5EAF"/>
<rect x="1.10999" y="7.30499" width="35.39" height="35.39" rx="17.1071" stroke="#E5E7EB"/>
<g clip-path="url(#clip0_2036_117)">
<path d="M16.7562 24.3171L18.805 26.3658L25.6341 19.5367M24.9512 25V29.7804C24.9512 30.1426 24.8073 30.49 24.5511 30.7462C24.295 31.0023 23.9476 31.1462 23.5854 31.1462H14.0245C13.6623 31.1462 13.3149 31.0023 13.0587 30.7462C12.8026 30.49 12.6587 30.1426 12.6587 29.7804V20.2196C12.6587 19.8573 12.8026 19.5099 13.0587 19.2538C13.3149 18.9976 13.6623 18.8537 14.0245 18.8537H21.5366" stroke="#E5E7EB" stroke-width="1.36583" stroke-linecap="round" stroke-linejoin="round"/>
</g>
<rect x="25" width="20" height="20" rx="10" fill="#0D5EAF"/>
<g clip-path="url(#clip1_2036_117)">
<path d="M33.0441 5.44531V14H31.4914V7.25586L29.4348 7.93555V6.68164L32.8684 5.44531H33.0441ZM40.9637 9.00195V10.4375C40.9637 11.0938 40.8973 11.6543 40.7645 12.1191C40.6316 12.584 40.4402 12.9648 40.1902 13.2617C39.9402 13.5547 39.6414 13.7715 39.2938 13.9121C38.9461 14.0488 38.5594 14.1172 38.1336 14.1172C37.7938 14.1172 37.4773 14.0742 37.1844 13.9883C36.8914 13.8984 36.6277 13.7617 36.3934 13.5781C36.1629 13.3906 35.9637 13.1523 35.7957 12.8633C35.6316 12.5742 35.5047 12.2285 35.4148 11.8262C35.3289 11.4238 35.2859 10.9609 35.2859 10.4375V9.00195C35.2859 8.3457 35.3523 7.78711 35.4852 7.32617C35.6219 6.86523 35.8152 6.48828 36.0652 6.19531C36.3152 5.90234 36.6141 5.68945 36.9617 5.55664C37.3094 5.41992 37.6961 5.35156 38.1219 5.35156C38.4656 5.35156 38.782 5.39453 39.0711 5.48047C39.3641 5.56641 39.6258 5.70117 39.8563 5.88477C40.0906 6.06445 40.2898 6.29883 40.4539 6.58789C40.618 6.87305 40.743 7.2168 40.8289 7.61914C40.9188 8.01758 40.9637 8.47852 40.9637 9.00195ZM39.4168 10.6484V8.78516C39.4168 8.45703 39.3973 8.17188 39.3582 7.92969C39.323 7.68359 39.2703 7.47461 39.2 7.30273C39.1297 7.13086 39.0418 6.99219 38.9363 6.88672C38.8309 6.77734 38.7098 6.69727 38.573 6.64648C38.4363 6.5957 38.2859 6.57031 38.1219 6.57031C37.9188 6.57031 37.7371 6.61133 37.577 6.69336C37.4168 6.77148 37.282 6.89648 37.1727 7.06836C37.0633 7.24023 36.9793 7.46875 36.9207 7.75391C36.866 8.03516 36.8387 8.37891 36.8387 8.78516V10.6484C36.8387 10.9766 36.8563 11.2637 36.8914 11.5098C36.9305 11.7559 36.9852 11.9668 37.0555 12.1426C37.1297 12.3184 37.2176 12.4629 37.3191 12.5762C37.4246 12.6855 37.5457 12.7676 37.6824 12.8223C37.8191 12.873 37.9695 12.8984 38.1336 12.8984C38.3406 12.8984 38.5223 12.8574 38.6785 12.7754C38.8387 12.6934 38.9734 12.5645 39.0828 12.3887C39.1922 12.209 39.2742 11.9766 39.3289 11.6914C39.3875 11.4023 39.4168 11.0547 39.4168 10.6484Z" fill="#E5E7EB"/>
</g>
<defs>
<clipPath id="clip0_2036_117">
<rect width="16.39" height="16.39" fill="white" transform="translate(10.61 16.805)"/>
</clipPath>
<clipPath id="clip1_2036_117">
<rect width="14" height="14" fill="white" transform="translate(28 3)"/>
</clipPath>
</defs>
</svg>
