<svg width="42" height="45" viewBox="0 0 42 45" fill="none" xmlns="http://www.w3.org/2000/svg">
<rect x="0.105225" y="7.94736" width="36.1053" height="36.1053" rx="17.6071" fill="#E7EBF2"/>
<g clip-path="url(#clip0_2036_109)">
<path d="M18.1578 18.6184V33.3815" stroke="#3F5E94" stroke-width="1.34211" stroke-linecap="round" stroke-linejoin="round"/>
<path d="M21.5132 21.3025H16.4803C15.8574 21.3025 15.26 21.55 14.8195 21.9904C14.379 22.4309 14.1316 23.0283 14.1316 23.6512C14.1316 24.2741 14.379 24.8715 14.8195 25.312C15.26 25.7524 15.8574 25.9999 16.4803 25.9999H19.8355C20.4584 25.9999 21.0558 26.2473 21.4963 26.6878C21.9368 27.1283 22.1842 27.7256 22.1842 28.3486C22.1842 28.9715 21.9368 29.5689 21.4963 30.0093C21.0558 30.4498 20.4584 30.6972 19.8355 30.6972H14.1316" stroke="#3F5E94" stroke-width="1.34211" stroke-linecap="round" stroke-linejoin="round"/>
</g>
<rect x="22" width="20" height="20" rx="10" fill="#0F3679"/>
<g clip-path="url(#clip1_2036_109)">
<path d="M30.0441 5.44531V14H28.4914V7.25586L26.4348 7.93555V6.68164L29.8684 5.44531H30.0441ZM37.9637 9.00195V10.4375C37.9637 11.0938 37.8973 11.6543 37.7645 12.1191C37.6316 12.584 37.4402 12.9648 37.1902 13.2617C36.9402 13.5547 36.6414 13.7715 36.2938 13.9121C35.9461 14.0488 35.5594 14.1172 35.1336 14.1172C34.7938 14.1172 34.4773 14.0742 34.1844 13.9883C33.8914 13.8984 33.6277 13.7617 33.3934 13.5781C33.1629 13.3906 32.9637 13.1523 32.7957 12.8633C32.6316 12.5742 32.5047 12.2285 32.4148 11.8262C32.3289 11.4238 32.2859 10.9609 32.2859 10.4375V9.00195C32.2859 8.3457 32.3523 7.78711 32.4852 7.32617C32.6219 6.86523 32.8152 6.48828 33.0652 6.19531C33.3152 5.90234 33.6141 5.68945 33.9617 5.55664C34.3094 5.41992 34.6961 5.35156 35.1219 5.35156C35.4656 5.35156 35.782 5.39453 36.0711 5.48047C36.3641 5.56641 36.6258 5.70117 36.8563 5.88477C37.0906 6.06445 37.2898 6.29883 37.4539 6.58789C37.618 6.87305 37.743 7.2168 37.8289 7.61914C37.9188 8.01758 37.9637 8.47852 37.9637 9.00195ZM36.4168 10.6484V8.78516C36.4168 8.45703 36.3973 8.17188 36.3582 7.92969C36.323 7.68359 36.2703 7.47461 36.2 7.30273C36.1297 7.13086 36.0418 6.99219 35.9363 6.88672C35.8309 6.77734 35.7098 6.69727 35.573 6.64648C35.4363 6.5957 35.2859 6.57031 35.1219 6.57031C34.9188 6.57031 34.7371 6.61133 34.577 6.69336C34.4168 6.77148 34.282 6.89648 34.1727 7.06836C34.0633 7.24023 33.9793 7.46875 33.9207 7.75391C33.866 8.03516 33.8387 8.37891 33.8387 8.78516V10.6484C33.8387 10.9766 33.8563 11.2637 33.8914 11.5098C33.9305 11.7559 33.9852 11.9668 34.0555 12.1426C34.1297 12.3184 34.2176 12.4629 34.3191 12.5762C34.4246 12.6855 34.5457 12.7676 34.6824 12.8223C34.8191 12.873 34.9695 12.8984 35.1336 12.8984C35.3406 12.8984 35.5223 12.8574 35.6785 12.7754C35.8387 12.6934 35.9734 12.5645 36.0828 12.3887C36.1922 12.209 36.2742 11.9766 36.3289 11.6914C36.3875 11.4023 36.4168 11.0547 36.4168 10.6484Z" fill="#E7EBF2"/>
</g>
<defs>
<clipPath id="clip0_2036_109">
<rect width="16.1053" height="16.1053" fill="white" transform="translate(10.1052 17.9474)"/>
</clipPath>
<clipPath id="clip1_2036_109">
<rect width="14" height="14" fill="white" transform="translate(25 3)"/>
</clipPath>
</defs>
</svg>
