<svg width="45" height="44" viewBox="0 0 45 44" fill="none" xmlns="http://www.w3.org/2000/svg">
<rect y="6.94736" width="36.1053" height="36.1053" rx="17.6071" fill="#E7EBF2"/>
<path d="M24.0921 27.0131C24.0921 27.3691 23.9507 27.7105 23.699 27.9621C23.4473 28.2138 23.106 28.3552 22.75 28.3552H14.6974L12.0132 31.0395V20.3026C12.0132 19.9467 12.1546 19.6053 12.4063 19.3536C12.658 19.1019 12.9993 18.9605 13.3553 18.9605H22.75C23.106 18.9605 23.4473 19.1019 23.699 19.3536C23.9507 19.6053 24.0921 19.9467 24.0921 20.3026V27.0131Z" stroke="#3F5E94" stroke-width="1.34211" stroke-linecap="round" stroke-linejoin="round"/>
<rect x="24.1052" width="20" height="20" rx="10" fill="#0F3679"/>
<g clip-path="url(#clip0_2036_125)">
<path d="M32.0849 5.43945V14H30.6728V7.11523L28.581 7.82422V6.6582L31.915 5.43945H32.0849ZM40.0103 9.01953V10.4141C40.0103 11.082 39.9439 11.6523 39.8111 12.125C39.6822 12.5938 39.4947 12.9746 39.2486 13.2676C39.0025 13.5605 38.7076 13.7754 38.3638 13.9121C38.024 14.0488 37.6431 14.1172 37.2212 14.1172C36.8853 14.1172 36.5728 14.0742 36.2837 13.9883C35.9986 13.9023 35.7408 13.7676 35.5103 13.584C35.2798 13.4004 35.0826 13.1641 34.9185 12.875C34.7583 12.582 34.6333 12.2324 34.5435 11.8262C34.4576 11.4199 34.4146 10.9492 34.4146 10.4141V9.01953C34.4146 8.34766 34.481 7.78125 34.6138 7.32031C34.7466 6.85547 34.9361 6.47852 35.1822 6.18945C35.4283 5.89648 35.7212 5.68359 36.0611 5.55078C36.4048 5.41797 36.7876 5.35156 37.2095 5.35156C37.5494 5.35156 37.8619 5.39453 38.147 5.48047C38.4361 5.5625 38.6939 5.69336 38.9205 5.87305C39.1509 6.05273 39.3462 6.28711 39.5064 6.57617C39.6705 6.86133 39.7955 7.20703 39.8814 7.61328C39.9673 8.01562 40.0103 8.48438 40.0103 9.01953ZM38.5982 10.6133V8.80859C38.5982 8.46875 38.5787 8.16992 38.5396 7.91211C38.5005 7.65039 38.4419 7.42969 38.3638 7.25C38.2896 7.06641 38.1958 6.91797 38.0826 6.80469C37.9693 6.6875 37.8404 6.60352 37.6958 6.55273C37.5513 6.49805 37.3892 6.4707 37.2095 6.4707C36.9908 6.4707 36.7955 6.51367 36.6236 6.59961C36.4517 6.68164 36.3072 6.81445 36.19 6.99805C36.0728 7.18164 35.983 7.42383 35.9205 7.72461C35.8619 8.02148 35.8326 8.38281 35.8326 8.80859V10.6133C35.8326 10.957 35.8521 11.2598 35.8912 11.5215C35.9302 11.7832 35.9888 12.0078 36.0669 12.1953C36.1451 12.3789 36.2388 12.5312 36.3482 12.6523C36.4615 12.7695 36.5904 12.8555 36.7349 12.9102C36.8833 12.9648 37.0455 12.9922 37.2212 12.9922C37.4439 12.9922 37.6412 12.9492 37.813 12.8633C37.9849 12.7773 38.1294 12.6406 38.2466 12.4531C38.3638 12.2617 38.4517 12.0137 38.5103 11.709C38.5689 11.4043 38.5982 11.0391 38.5982 10.6133Z" fill="#E7EBF2"/>
</g>
<defs>
<clipPath id="clip0_2036_125">
<rect width="12.7273" height="12.7273" fill="white" transform="translate(27.7416 3.63636)"/>
</clipPath>
</defs>
</svg>
