<svg xmlns="http://www.w3.org/2000/svg" width="62" height="36" viewBox="0 0 62 36" fill="none">
  <path d="M12.6575 6.73966L29.7399 24.3393L28.0848 29.3522L18.792 19.8167L15.0567 15.9841L13.3712 21.0891L9.71176 32.1884L4.79203 32.1424L12.6575 6.73966ZM11.1695 0.500244L0.343018 35.3925L12.0501 35.4999L16.4688 22.1163L29.497 35.4999L33.4753 23.4654L11.1695 0.500244Z" fill="white"/>
  <path d="M52.3035 3.81158L57.2232 3.85755L49.3425 29.2603L32.2601 11.6609L33.9152 6.64774L43.2081 16.1834L46.9434 20.016L48.6289 14.911L52.3035 3.81158ZM49.9499 0.500244L45.5313 13.8838L32.5031 0.500244L28.5248 12.5347L50.8306 35.4999L61.657 0.607438L49.9499 0.500244Z" fill="white"/>
</svg>