<svg width="22" height="22" viewBox="0 0 22 22" fill="none" xmlns="http://www.w3.org/2000/svg">
<path d="M16 1H6C3.23858 1 1 3.2371 1 5.9967V15.9901C1 18.7497 3.23858 20.9868 6 20.9868H16C18.7614 20.9868 21 18.7497 21 15.9901V5.9967C21 3.2371 18.7614 1 16 1Z" stroke="#224586" stroke-width="2" stroke-linecap="round" stroke-linejoin="round"/>
<path d="M14.9997 10.3639C15.1231 11.1955 14.981 12.0449 14.5935 12.7911C14.206 13.5374 13.5928 14.1425 12.8413 14.5205C12.0898 14.8985 11.2381 15.0301 10.4075 14.8965C9.57683 14.7629 8.80947 14.371 8.21454 13.7765C7.61962 13.1821 7.22744 12.4153 7.09377 11.5852C6.96011 10.7552 7.09177 9.90412 7.47003 9.15315C7.84829 8.40219 8.45389 7.78952 9.20069 7.40231C9.94749 7.01509 10.7975 6.87304 11.6297 6.99636C12.4786 7.12216 13.2646 7.51744 13.8714 8.12384C14.4782 8.73024 14.8738 9.51559 14.9997 10.3639Z" stroke="#224586" stroke-width="2" stroke-linecap="round" stroke-linejoin="round"/>
<path d="M16.5 5.49609H16.51" stroke="#224586" stroke-width="2" stroke-linecap="round" stroke-linejoin="round"/>
</svg>
