<svg width="355" height="28" viewBox="0 0 355 28" fill="none" xmlns="http://www.w3.org/2000/svg">
<path d="M19.75 1.98724H7.25C3.79822 1.98724 1 4.78546 1 8.23724V20.7372C1 24.189 3.79822 26.9872 7.25 26.9872H19.75C23.2018 26.9872 26 24.189 26 20.7372V8.23724C26 4.78546 23.2018 1.98724 19.75 1.98724Z" stroke="#56B6FF" stroke-width="2" stroke-linecap="round" stroke-linejoin="round"/>
<path d="M18.4996 13.7001C18.6539 14.7404 18.4762 15.8029 17.9918 16.7364C17.5075 17.6699 16.7411 18.4269 15.8017 18.8997C14.8623 19.3725 13.7977 19.5371 12.7594 19.37C11.721 19.203 10.7618 18.7127 10.0182 17.9691C9.27453 17.2254 8.7843 16.2662 8.61722 15.2279C8.45014 14.1896 8.61472 13.125 9.08754 12.1856C9.56037 11.2462 10.3174 10.4798 11.2509 9.99542C12.1844 9.51105 13.2468 9.33336 14.2871 9.48762C15.3483 9.64498 16.3307 10.1394 17.0893 10.898C17.8478 11.6566 18.3423 12.639 18.4996 13.7001Z" stroke="#56B6FF" stroke-width="2" stroke-linecap="round" stroke-linejoin="round"/>
<path d="M20.375 7.61224H20.3875" stroke="#56B6FF" stroke-width="2" stroke-linecap="round" stroke-linejoin="round"/>
<path d="M62.5 1.98724C55.6075 1.98724 50 7.5947 50 14.4872C50 21.3798 55.6075 26.9872 62.5 26.9872C69.3925 26.9872 75 21.3798 75 14.4872C75 7.5947 69.3925 1.98724 62.5 1.98724ZM70.7646 7.75166C72.2517 9.56849 73.1522 11.8826 73.1757 14.4026C72.8236 14.3282 69.2937 13.6122 65.7411 14.059C65.4512 13.3513 65.1775 12.7287 64.8027 11.9615C68.7504 10.3497 70.5395 8.05614 70.7646 7.75166ZM69.5777 6.51698C69.3856 6.79052 67.7784 8.95075 63.9819 10.3738C62.2323 7.15927 60.2931 4.51854 59.998 4.12338C63.3839 3.3072 66.9519 4.18739 69.5777 6.51698ZM57.9607 4.84107C58.2422 5.22711 60.1502 7.87111 61.9193 11.0159C56.9249 12.3422 52.5261 12.3231 52.0486 12.3168C52.7409 9.00362 54.9737 6.25 57.9607 4.84107ZM51.8231 14.5035C51.8231 14.3944 51.8253 14.2857 51.8285 14.1773C52.2957 14.1868 57.4697 14.2535 62.8016 12.6578C63.1073 13.256 63.3992 13.8632 63.6672 14.4698C59.8064 15.5572 56.2986 18.6798 54.5679 21.6424C52.8626 19.7496 51.8231 17.2458 51.8231 14.5035ZM55.9464 22.9266C57.0617 20.6467 60.0885 17.7037 64.3929 16.2352C65.8919 20.1305 66.5118 23.3952 66.6706 24.3319C63.2376 25.7943 59.1094 25.393 55.9464 22.9266ZM68.4656 23.3544C68.3561 22.7049 67.7879 19.5794 66.3914 15.7419C69.7371 15.2063 72.6767 16.083 73.0419 16.1983C72.566 19.1691 70.8608 21.7348 68.4656 23.3544Z" fill="#56B6FF"/>
<path d="M113.848 13.7411C115.884 12.7308 116.946 11.2021 116.946 8.82275C116.946 4.13042 113.58 2.98724 109.695 2.98724H99V26.5419H109.996C114.117 26.5419 117.989 24.4882 117.989 19.7028C117.989 16.7452 116.639 14.5586 113.848 13.7411ZM103.986 7.00829H108.664C110.463 7.00829 112.082 7.53335 112.082 9.70007C112.082 11.7006 110.821 12.5048 109.042 12.5048H103.986V7.00829ZM109.317 22.5408H103.986V16.054H109.42C111.615 16.054 113.004 17.0044 113.004 19.417C113.004 21.7964 111.346 22.5408 109.317 22.5408ZM132.262 6.54304H123.065V4.22347H132.262V6.54304ZM135.865 18.2606C135.865 13.216 133.023 9.00884 127.871 9.00884C122.866 9.00884 119.468 12.9169 119.468 18.0346C119.468 23.345 122.687 26.9872 127.871 26.9872C131.795 26.9872 134.335 25.1528 135.558 21.2514H131.577C131.148 22.707 129.382 23.478 128.012 23.478C125.369 23.478 123.98 21.8695 123.98 19.1379H135.827C135.846 18.8587 135.865 18.5597 135.865 18.2606ZM123.986 16.1869C124.134 13.9471 125.567 12.5447 127.73 12.5447C129.996 12.5447 131.135 13.9271 131.327 16.1869H123.986Z" fill="#56B6FF"/>
<path d="M176.511 26.9872V22.386C176.555 21.819 176.479 21.2491 176.286 20.714C176.093 20.179 175.789 19.6911 175.393 19.2828C179.126 18.8667 183.05 17.4518 183.05 10.9601C183.05 9.30008 182.411 7.70375 181.266 6.50148C181.808 5.04917 181.77 3.44389 181.159 2.0191C181.159 2.0191 179.756 1.60296 176.511 3.77876C173.785 3.0402 170.913 3.0402 168.188 3.77876C164.942 1.60296 163.539 2.0191 163.539 2.0191C162.928 3.44389 162.89 5.04917 163.432 6.50148C162.279 7.71267 161.64 9.32343 161.649 10.9957C161.649 17.4399 165.572 18.8548 169.305 19.3185C168.914 19.7227 168.613 20.2047 168.42 20.7332C168.227 21.2617 168.148 21.8249 168.188 22.386V26.9872M168.188 23.4204C162.243 25.2038 162.243 20.448 159.865 19.8535L168.188 23.4204Z" stroke="#56B6FF" stroke-width="2" stroke-linecap="round" stroke-linejoin="round"/>
<path d="M225.471 9.88153C227.565 9.88153 229.573 10.7133 231.053 12.1938C232.534 13.6744 233.366 15.6825 233.366 17.7763V26.9868H228.102V17.7763C228.102 17.0783 227.825 16.409 227.332 15.9155C226.838 15.4219 226.169 15.1447 225.471 15.1447C224.773 15.1447 224.104 15.4219 223.61 15.9155C223.117 16.409 222.839 17.0783 222.839 17.7763V26.9868H217.576V17.7763C217.576 15.6825 218.408 13.6744 219.888 12.1938C221.369 10.7133 223.377 9.88153 225.471 9.88153V9.88153Z" stroke="#56B6FF" stroke-width="2" stroke-linecap="round" stroke-linejoin="round"/>
<path d="M212.313 11.1978H207.05V26.9872H212.313V11.1978Z" stroke="#56B6FF" stroke-width="2" stroke-linecap="round" stroke-linejoin="round"/>
<path d="M209.681 7.24997C211.135 7.24997 212.313 6.07178 212.313 4.6184C212.313 3.16501 211.135 1.98682 209.681 1.98682C208.228 1.98682 207.05 3.16501 207.05 4.6184C207.05 6.07178 208.228 7.24997 209.681 7.24997Z" stroke="#56B6FF" stroke-width="2" stroke-linecap="round" stroke-linejoin="round"/>
</svg>
